<?xml version="1.0" encoding="utf-8"?>
<!-- Generator: Adobe Illustrator 25.3.1, SVG Export Plug-In . SVG Version: 6.00 Build 0)  -->
<svg version="1.1" id="Layer_1" xmlns="http://www.w3.org/2000/svg" xmlns:xlink="http://www.w3.org/1999/xlink" x="0px" y="0px"
	 viewBox="0 0 401.1 99.8" style="enable-background:new 0 0 401.1 99.8;" xml:space="preserve">
<style type="text/css">
	.st0{clip-path:url(#SVGID_2_);}
	.st1{clip-path:url(#SVGID_4_);}
	.st2{clip-path:url(#SVGID_6_);}
	.st3{clip-path:url(#SVGID_8_);}
	.st4{clip-path:url(#SVGID_10_);}
	.st5{clip-path:url(#SVGID_12_);}
	.st6{clip-path:url(#SVGID_14_);}
	.st7{clip-path:url(#SVGID_16_);}
	.st8{clip-path:url(#SVGID_18_);}
</style>
<g>
	<g>
		<defs>
			<path id="SVGID_1_" d="M264.2,99.8l-107.3-0.1c-16.3,0-29.5-13.3-29.5-29.6v-40c0-6-4.9-10.8-10.9-10.8l0,0H9.7l0,0
				C4.4,19.3,0,15,0,9.7S4.3,0,9.6,0c0,0,0,0,0.1,0h106.7l0,0c16.7,0,30.1,13.5,30.2,30.2v39.9c0,5.7,4.6,10.2,10.3,10.3h107.3
				c5.7,0,10.4-4.7,10.4-10.4c0-5.7-4.6-10.3-10.4-10.4h-64.3c-16.1-0.1-29.3-13-29.7-29.1c-0.2-7.9,2.9-15.6,8.5-21.2
				c5.7-5.8,13.5-9.1,21.7-9.1h191.1c5.3,0,9.7,4.3,9.7,9.6s-4.3,9.7-9.6,9.7c0,0,0,0-0.1,0H200.3c-3,0-5.8,1.2-7.9,3.3
				c-1.9,1.9-3,4.6-2.9,7.3c0.2,5.6,4.7,10.1,10.4,10.2l64.3,0.1c16.4,0,29.7,13.3,29.7,29.7C293.9,86.5,280.6,99.8,264.2,99.8
				L264.2,99.8z M9.7,18.1c4.6,0,8.4-3.7,8.4-8.4s-3.7-8.4-8.4-8.4C5,1.4,1.3,5.2,1.3,9.8S5,18.1,9.7,18.1L9.7,18.1z M391.5,18.1
				c4.6,0,8.4-3.7,8.4-8.4s-3.7-8.4-8.4-8.4c-4.6,0-8.4,3.7-8.4,8.4S386.9,18.1,391.5,18.1L391.5,18.1L391.5,18.1z"/>
		</defs>
		<use xlink:href="#SVGID_1_"  style="overflow:visible;"/>
		<clipPath id="SVGID_2_">
			<use xlink:href="#SVGID_1_"  style="overflow:visible;"/>
		</clipPath>
		<g class="st0">
			<g>
				<g>
					<defs>
						<circle id="SVGID_3_" cx="199.5" cy="44.6" r="219.6"/>
					</defs>
					<use xlink:href="#SVGID_3_"  style="overflow:visible;"/>
					<clipPath id="SVGID_4_">
						<use xlink:href="#SVGID_3_"  style="overflow:visible;"/>
					</clipPath>
					<g class="st1">
						<g>
							<g>
								<defs>
									<rect id="SVGID_5_" x="-34.8" y="-189.7" width="468.5" height="468.5"/>
								</defs>
								<use xlink:href="#SVGID_5_"  style="overflow:visible;"/>
								<clipPath id="SVGID_6_">
									<use xlink:href="#SVGID_5_"  style="overflow:visible;"/>
								</clipPath>
								<g class="st2">
									<g transform="translate(3492.26 1070.71) scale(0.48)">
										
											<image style="overflow:visible;enable-background:new    ;" width="333" height="334" id="image" xlink:href="94DB5FEE5F308511.png"  transform="matrix(1.4085 0 0 1.4085 -35.1172 -190.9346)">
										</image>
									</g>
								</g>
							</g>
						</g>
					</g>
				</g>
			</g>
		</g>
	</g>
</g>
<g>
	<g>
		<defs>
			<path id="SVGID_7_" d="M83.2,40.2v49.9c0,5.5-4.5,9.9-9.9,9.9l0,0c-5.5,0-9.9-4.5-9.9-9.9V40.2c0-5.5,4.5-9.9,9.9-9.9l0,0
				C78.7,30.2,83.2,34.7,83.2,40.2z M73.2,31.7c-4.6,0-8.4,3.7-8.4,8.4s3.7,8.4,8.4,8.4c4.6,0,8.4-3.7,8.4-8.4S77.9,31.7,73.2,31.7
				C73.3,31.7,73.3,31.7,73.2,31.7z"/>
		</defs>
		<use xlink:href="#SVGID_7_"  style="overflow:visible;"/>
		<clipPath id="SVGID_8_">
			<use xlink:href="#SVGID_7_"  style="overflow:visible;"/>
		</clipPath>
		<g class="st3">
			<g>
				<g>
					<defs>
						<circle id="SVGID_9_" cx="199.5" cy="44.6" r="219.6"/>
					</defs>
					<use xlink:href="#SVGID_9_"  style="overflow:visible;"/>
					<clipPath id="SVGID_10_">
						<use xlink:href="#SVGID_9_"  style="overflow:visible;"/>
					</clipPath>
					<g class="st4">
						<g>
							<g>
								<defs>
									<rect id="SVGID_11_" x="-34.8" y="-189.7" width="468.5" height="468.5"/>
								</defs>
								<use xlink:href="#SVGID_11_"  style="overflow:visible;"/>
								<clipPath id="SVGID_12_">
									<use xlink:href="#SVGID_11_"  style="overflow:visible;"/>
								</clipPath>
								<g class="st5">
									<g transform="translate(3492.26 1070.71) scale(0.48)">
										
											<image style="overflow:visible;enable-background:new    ;" width="333" height="334" id="image_2_" xlink:href="94DB5FEE5F308513.png"  transform="matrix(1.4085 0 0 1.4085 -35.1172 -190.9346)">
										</image>
									</g>
								</g>
							</g>
						</g>
					</g>
				</g>
			</g>
		</g>
	</g>
</g>
<g>
	<g>
		<defs>
			<path id="SVGID_13_" d="M317.9,89.9V40.1c0-5.5,4.5-9.9,9.9-9.9l0,0c5.5,0,9.9,4.5,9.9,9.9V90c0,5.5-4.5,9.9-9.9,9.9l0,0
				C322.3,99.9,317.9,95.4,317.9,89.9z M327.8,98.5c4.6,0,8.4-3.7,8.4-8.4s-3.7-8.4-8.4-8.4c-4.6,0-8.4,3.7-8.4,8.4
				c0,4.6,3.7,8.4,8.3,8.5C327.7,98.6,327.7,98.6,327.8,98.5L327.8,98.5z"/>
		</defs>
		<use xlink:href="#SVGID_13_"  style="overflow:visible;"/>
		<clipPath id="SVGID_14_">
			<use xlink:href="#SVGID_13_"  style="overflow:visible;"/>
		</clipPath>
		<g class="st6">
			<g>
				<g>
					<defs>
						<circle id="SVGID_15_" cx="199.5" cy="44.6" r="219.6"/>
					</defs>
					<use xlink:href="#SVGID_15_"  style="overflow:visible;"/>
					<clipPath id="SVGID_16_">
						<use xlink:href="#SVGID_15_"  style="overflow:visible;"/>
					</clipPath>
					<g class="st7">
						<g>
							<g>
								<defs>
									<rect id="SVGID_17_" x="-34.8" y="-189.7" width="468.5" height="468.5"/>
								</defs>
								<use xlink:href="#SVGID_17_"  style="overflow:visible;"/>
								<clipPath id="SVGID_18_">
									<use xlink:href="#SVGID_17_"  style="overflow:visible;"/>
								</clipPath>
								<g class="st8">
									<g transform="translate(3492.26 1070.71) scale(0.48)">
										
											<image style="overflow:visible;enable-background:new    ;" width="333" height="334" id="image_3_" xlink:href="94DB5FEE5F308516.png"  transform="matrix(1.4085 0 0 1.4085 -35.1172 -190.9346)">
										</image>
									</g>
								</g>
							</g>
						</g>
					</g>
				</g>
			</g>
		</g>
	</g>
</g>
</svg>
